<svg id="Capa_1" data-name="Capa 1" xmlns="http://www.w3.org/2000/svg" viewBox="0 0 7.59 14.99"><defs><style>.cls-1{fill:#e30613;}.cls-2{fill:#29235c;}</style></defs><path class="cls-1" d="M7.2,15.71l-.55-.49-.16-.16a.2.2,0,0,0-.26,0,1.39,1.39,0,0,1-1.18,0,1.37,1.37,0,0,1-.83-1.45,1.41,1.41,0,0,1,1.23-1.16A1.39,1.39,0,0,1,7,13.71a1.35,1.35,0,0,1-.13.6.3.3,0,0,0,.09.38,4.57,4.57,0,0,1,.44.44c.25.24.23.4,0,.58ZM4.69,13.78a.93.93,0,1,0,.93-.91A.93.93,0,0,0,4.69,13.78Z" transform="translate(-4.21 -0.72)"/><path class="cls-1" d="M5.32,12V8c0-.83,0-1.66,0-2.49V5.4c0-.22.1-.3.32-.3H8.85c.19,0,.23,0,.24.22s0,.61,0,.91c0,.13-.06.19-.2.22a5.44,5.44,0,0,0-.84.22A2.87,2.87,0,0,0,6.26,8.92a4.18,4.18,0,0,0,0,1.06s0,.06,0,.09a.73.73,0,0,1-.24.72,3,3,0,0,0-.61,1,1.11,1.11,0,0,1-.07.16Z" transform="translate(-4.21 -0.72)"/><path class="cls-2" d="M10.15,9.2c.18.11.19.13.14.36a1.84,1.84,0,0,1-.24.64,2.69,2.69,0,0,0-.19.38,1.6,1.6,0,0,1-.42.58A1.19,1.19,0,0,1,7.65,11a5,5,0,0,1-.34-.65.47.47,0,0,0,0-.1A1.21,1.21,0,0,1,7,9.43c0-.09,0-.16.11-.19s.07-.07.06-.14a1.6,1.6,0,0,1,1.32-2,1.24,1.24,0,0,1,.9.19c.21.13.4.28.6.43a.73.73,0,0,1,.25.62C10.2,8.65,10.17,8.91,10.15,9.2Z" transform="translate(-4.21 -0.72)"/><path class="cls-2" d="M6.18,12l1.31-.59.68,2h0c.08-.19.16-.37.22-.56a.45.45,0,0,0-.1-.44.42.42,0,0,1-.09-.34.31.31,0,0,1,.13-.19.56.56,0,0,1,.56,0,.28.28,0,0,1,.12.35l-.16.33a.28.28,0,0,0,0,.29c.06.15.11.31.17.47l0,.09h0l.68-2c.25.11.48.24.73.34s.46.18.69.25a.75.75,0,0,1,.59.7c0,.34,0,.68,0,1a.22.22,0,0,1-.12.13,4.86,4.86,0,0,1-1.82.58c-.51,0-1,.07-1.53.08a6.32,6.32,0,0,1-.75-.06c-.09,0-.1-.06-.07-.14a1.67,1.67,0,0,0,0-.83A1.84,1.84,0,0,0,6.25,12Z" transform="translate(-4.21 -0.72)"/><path class="cls-1" d="M7.87.85A.13.13,0,0,1,8,.72H8c.91,0,1.82,0,2.74,0,.09,0,.12,0,.12.11l0,1.9c0,.55,0,1.1,0,1.65s0,1.26,0,1.89c0,.41,0,.82,0,1.24a.07.07,0,0,1,0,.06l-.1-.18a1.24,1.24,0,0,0-.49-.5,2.45,2.45,0,0,1-.35-.29.19.19,0,0,1,0-.13l.06-1.11c0-.07,0-.15,0-.22,0-.25-.15-.36-.42-.39l-.5,0h-.8c-.1,0-.15,0-.16-.12a3.57,3.57,0,0,1,0-.47c0-1.08,0-2.16,0-3.25Z" transform="translate(-4.21 -0.72)"/></svg>