<svg id="Capa_1" data-name="Capa 1" xmlns="http://www.w3.org/2000/svg" viewBox="0 0 426.55 426.56"><defs><style>.cls-1{fill:#c1181d;}.cls-2{fill:#222b4e;}</style></defs><path class="cls-1" d="M321.79,456.14V295.3h16c6,0,12,.25,18-.08,4.07-.23,5.12,1.34,5.1,5.12-.15,25.64-.15,51.28-.17,76.92,0,12,.18,24,0,35.95-.05,2.46-.76,5.58-2.37,7.23C347.06,432,335.51,443.31,324,454.67A17,17,0,0,1,321.79,456.14Z" transform="translate(-79.51 -222.55)"/><path class="cls-1" d="M259.6,493l-22.05-12c-4.52-2.48-9.25-4.67-13.45-7.61-1.85-1.3-3.7-4.13-3.71-6.28-.23-34.12-.14-68.24-.22-102.36,0-3.53,1.33-4.57,4.73-4.51,9.32.17,18.64,0,28,0,6.31,0,6.7.36,6.71,6.86q0,55.42,0,110.85Z" transform="translate(-79.51 -222.55)"/><path class="cls-2" d="M277.15,541.68c6.7-9,13-18.1,20-26.77a252.25,252.25,0,0,1,92.34-71.83A298,298,0,0,1,461.22,421a8.44,8.44,0,0,1,2.3.25c-.48.47-.85,1.15-1.46,1.38-35.2,12.93-64,32.75-88.74,56.81-23.67,23-42.64,48.51-58.49,75.61-7.94,13.58-14.9,27.54-22.24,41.36a3.86,3.86,0,0,1-2.82,2.18c-9.6,2.32-19.19,4.67-28.74,7.13-2,.52-2.8.26-3.29-1.55C253.32,587.82,247.31,571.93,238,557c-9.07-14.59-20.76-27.4-37.14-37-1.76-1-3.59-2-5.43-2.9-1.35-.67-1.61-1.28-.16-2.09,18.26-10.24,37.34-11.73,55.73.15,10.18,6.58,17.67,15,24.33,24Z" transform="translate(-79.51 -222.55)"/><path class="cls-2" d="M292.79,222.55c-117.6,0-213.28,95.68-213.28,213.28s95.68,213.29,213.28,213.29,213.27-95.68,213.27-213.29c0-97-65.09-179.07-153.89-204.86L368,265.54c65.25,28.93,110.88,94.31,110.88,170.16,0,102.58-83.45,186-186,186s-186-83.45-186-186,83.45-186,186-186a185.21,185.21,0,0,1,60,9.92l-14.71-32.18A213.41,213.41,0,0,0,292.79,222.55Z" transform="translate(-79.51 -222.55)"/><path class="cls-1" d="M270.77,369.24h39.41q0-20.16,0-40.33c0-3.83-1.45-4.76-5.25-4.68-9.32.2-18.68.4-28-.06-5.38-.26-6.35,1.68-6.32,6.12Q270.79,349.76,270.77,369.24Z" transform="translate(-79.51 -222.55)"/><path class="cls-1" d="M290.35,361.66l-18.6,5.81a16.54,16.54,0,0,1-1.05-5.81c0-9.89,8.87-18,19.65-18s19.66,8.13,19.66,18a16.74,16.74,0,0,1-.92,5.46Z" transform="translate(-79.51 -222.55)"/><path class="cls-1" d="M270.7,448.8q0,21.12,0,42.25c0,1.85-.36,4,.39,5.49a11.05,11.05,0,0,0,4.48,4.79c.91.46,3.25-.93,4.37-2.07,8.81-9,17.68-17.91,26.07-27.29a16.31,16.31,0,0,0,4-9.81c0-4.45,0-8.91,0-13.36Z" transform="translate(-79.51 -222.55)"/><path class="cls-2" d="M292.28,398.07c2.56,0,5.11,0,7.67,0,6.3.22,11.48,5.58,12.12,10.45-.48.62-1.17.38-1.78.38-5.11,0-10.22,0-15.34,0-3.07,0-3.44.3-4.45,3.26-.72,2.11-1.45,4.22-2.12,6.35a1.5,1.5,0,0,1-1.72,1.24c-1.84-.06-3.68-.05-5.52,0-.9,0-1.3-.31-1.28-1.25,0-1.84,0-3.68,0-5.52a10.19,10.19,0,0,0-.17-2.14,2.29,2.29,0,0,0-2.22-1.85,2.46,2.46,0,0,0-2.57,1.38,4.28,4.28,0,0,0-.41,2.09c0,3,0,6.07,0,9.11,0,2.68.9,3.5,3.65,3.54,2.55,0,5.09,0,7.54,0,.47.84,0,1.41-.18,2-.8,2.5-1.63,5-2.46,7.5-.22.66-.37,1.45-1.34,1.43-2.86-.05-5.75.3-8.56-.58a13.7,13.7,0,0,1-9.7-12.65q-.17-5.74,0-11.51a13.57,13.57,0,0,1,13.41-13.25c2.47-.06,4.95,0,7.62,0a6.65,6.65,0,0,0-2.49-1.42,14,14,0,0,1-7.49-13.43,13.74,13.74,0,0,1,9.39-11.89,13.58,13.58,0,0,1,16.58,7.39,13.75,13.75,0,0,1-5.58,17.49c-.69.41-1.44.7-2.15,1-.51.19-.92.54-1.44.71-.29.09.05.46,0,.16,0-.14.18-.23.35-.23A.89.89,0,0,1,292.28,398.07Z" transform="translate(-79.51 -222.55)"/><path class="cls-2" d="M284.84,447a11.89,11.89,0,0,1,.91-3.52q4.44-13.51,8.93-27c.69-2.08.69-2.1,2.79-2.1h14.85a13.85,13.85,0,0,1,1.44,0,2.47,2.47,0,0,1,2.26,1.84,4.21,4.21,0,0,1-.72,3.4c-.27.46-.86.3-1.33.28-1.36,0-2.71-.15-4.07-.11a8,8,0,0,0-8.17,8.22c-.05,1.67,0,3.35,0,5a7.74,7.74,0,0,0,5,7.71c1.29.55,1.55,1.11,1,2.3-.32.64-.41,1.39-.75,2a3.11,3.11,0,0,1-2.8,1.91Z" transform="translate(-79.51 -222.55)"/><path class="cls-2" d="M307.07,430.49v-1.44c0-3.08.75-3.85,3.77-3.88a15.1,15.1,0,0,1,2.85.25,5.27,5.27,0,0,1,4.33,5.27A5.49,5.49,0,0,1,313.4,436a20.38,20.38,0,0,1-3.58.06,2.61,2.61,0,0,1-2.73-2.71c-.06-.95,0-1.91,0-2.87Z" transform="translate(-79.51 -222.55)"/><path class="cls-2" d="M280.74,441.44c-.58,1.75-1.07,3.16-1.52,4.59a1.28,1.28,0,0,1-1.41,1c-2,0-4,0-6,0a2.7,2.7,0,0,1-2.76-2.69,5.54,5.54,0,0,1,0-.71v-4C272.85,441.45,276.63,441.54,280.74,441.44Z" transform="translate(-79.51 -222.55)"/></svg>