<svg xmlns="http://www.w3.org/2000/svg" viewBox="0 0 936.68 714.03"><defs><style>.cls-1{fill:#e20c19;}.cls-2{fill:#0a2b3e;}</style></defs><g id="Capa_2" data-name="Capa 2"><g id="Capa_1-2" data-name="Capa 1"><path class="cls-1" d="M296.52,0a42.86,42.86,0,0,1,.63,5.38c-.3,33.43-.43,66.87-1,100.29-.78,43.72-2,87.43-2.91,131.14-.84,41.4-1.47,82.8-2.19,124.72a23.74,23.74,0,0,1-1.93-3.08c-6.13-14.22-14.7-26.14-28.56-34.17-5.91-3.42-10.7-8.93-15.52-14-1.58-1.64-2.35-4.76-2.27-7.17.71-20.26,1.75-40.51,2.54-60.77a70.81,70.81,0,0,0-.71-11.44c-1.43-11.4-7.47-17-20.09-18.23-8.1-.78-16.26-1.06-24.39-1.28-13-.36-26-.68-38.92-.61-4.67,0-7-2-7.42-6.16-.87-9.41-1.87-18.85-1.89-28.29-.11-52.24,0-104.48.12-156.73,0-4.16-.19-8.33.08-12.47.15-2.41,1-4.78,1.58-7.17Z"/><path class="cls-1" d="M51.49,540.84V526.08c0-30.12,0-60.24,0-90.36q-.16-84.86-.42-169.72c0-7.48-.24-15-.18-22.46.11-12.13,3.85-15.81,15.88-15.81l145.33.12c10.17,0,12,1.66,12.12,11.83.18,12.62.2,25.25.22,37.88,0,7.43-2.56,10.35-9.82,12.16-13,3.23-26.63,5.17-38.9,10.26-46,19.09-72,54.51-81.11,102.94-3.06,16.28-.91,32.48.45,48.71,0,.49.15,1,.23,1.47,2.28,13.7.09,25.59-10.86,35.72-13.55,12.54-21.36,29.08-28.54,45.82-.94,2.19-2,4.33-3,6.49Z"/><path class="cls-2" d="M272.88,415.59c8.33,5.22,8.61,5.92,6.42,16.45s-5.14,20.5-11.28,29.57c-3.59,5.31-5.81,11.55-8.51,17.43-4.64,10.1-10.68,19.18-19.14,26.48-25.88,22.34-61.51,18.91-82-8.79-6.61-9-10.55-19.86-15.73-29.86a18.74,18.74,0,0,0-2.44-4.29c-9.66-10.32-12.79-23-13.62-36.59-.25-4.17.89-7.23,4.91-8.73,3.22-1.19,3.4-3.16,2.72-6.26-9.32-42.88,17.1-82.38,60.23-89.64,14.73-2.48,29,.13,41.62,8.35,9.48,6.16,18.62,12.86,27.59,19.74,9.34,7.16,11.41,18,11.52,28.64C275.34,390.29,273.77,402.51,272.88,415.59Z"/><path class="cls-2" d="M90.7,543.6l60.2-27.19,31.25,95c1.16-1.33,1.73-1.72,1.94-2.25,3.08-7.71,6.39-15.34,9.09-23.18s1.19-15.18-4.06-21.55a20.3,20.3,0,0,1-4.29-15.9,12.82,12.82,0,0,1,5.42-8.17c8.59-5.3,17.74-5,26.58-.21,5.52,3,7.51,9.25,4.81,16.12A165.06,165.06,0,0,1,214,571.89a13.1,13.1,0,0,0-.66,11.87c3,7.36,5.46,15,8.21,22.45a42.37,42.37,0,0,0,2,4.13l1.39-.12,30.79-93.85c11.57,5.44,22.63,11.06,34,15.85a317.12,317.12,0,0,0,31.32,11.34c15.72,4.74,26.38,15.93,27,32.63.56,15.37-.84,30.84-2,46.22-.17,2.29-3.16,5.13-5.54,6.38-26,13.58-53.47,23.17-82.74,26-23.65,2.28-47.43,3.46-71.18,4.09-11.23.29-22.52-1.83-33.78-2.93-4.62-.45-4.49-3.25-3.43-6.84,5.71-19.34,5.34-38.43-3.32-56.9C135,568.43,117.33,551.8,90.7,543.6Z"/><path class="cls-2" d="M893.7,451.32a48.11,48.11,0,0,0,.47-5.72q-1-32.66-2.16-65.3c-.28-8.05.15-8.53,8-8.74,10-.28,20-.62,29.93-.9,6.79-.19,6.93-.15,6.71,6.89-.51,16.78-1.49,33.56-1.69,50.35-.33,28.12-.21,56.26-.28,84.38,0,8-.32,8.63-8.34,8.71-9.31.1-18.65,0-27.9-.82-2.41-.21-5-2.91-6.77-5.1C874,492.53,856.56,469.85,839,447.22c-1.58-2-3.29-4-4.93-6l-1.41.4c0,4.53-.08,9.06,0,13.59.4,19.62.76,39.25,1.37,58.87.15,4.74-1.29,6.41-6.2,6.26-10.81-.35-21.65-.29-32.47,0-4.28.11-5.43-1.42-5.27-5.47.8-19.93,2-39.88,1.92-59.82,0-24.94-1.16-49.88-1.72-74.81-.17-7.72,0-7.46,7.5-7.93s15.23-1.32,22.79-2.42c5.21-.76,8.86.16,12.29,4.84,17.31,23.62,35,47,52.64,70.34,1.91,2.53,4.27,4.73,6.42,7.08Z"/><path class="cls-1" d="M333.65,369.63c15.89,1.25,31.91,1.55,47.62,3.95,32,4.9,49.69,26,55.66,56.69,5.35,27.55-2.21,52.09-22.28,72.18-12.55,12.56-28.39,17.73-45.71,18-22.44.35-44.89-.14-67.34-.07-4.82,0-4.86-2.76-4.75-6.17.65-19.94,1.76-39.87,1.76-59.8,0-24.26-.95-48.52-1.5-72.79a24.61,24.61,0,0,0-.25-3c-.66-4.82.72-7.59,6.29-7.47,10.14.21,20.28.06,30.42.06Zm5.82,75.55c0,11.15.21,22.31-.09,33.45-.14,5.33,2.06,7.76,7.11,8.05,4.64.28,9.31.92,13.92.63,14.82-.9,25.94-7.78,32.28-21.46a48.76,48.76,0,0,0,3.23-30.77c-5.16-25.2-27.33-35.57-52-30.5-3.31.68-4.49,2.82-4.46,6.16C339.55,422.22,339.48,433.7,339.47,445.18Z"/><path class="cls-2" d="M686.57,371.61h77.34c8.67,0,9.37.56,10.24,9,.76,7.27,1.2,14.58,2.06,21.84.48,4.1-1.06,5.16-5,5q-24.66-1.11-49.35-1.8c-8.55-.23-9.53.87-9.56,8.75-.05,10.64,1.62,13.07,9.84,12.86,14.46-.37,28.92-1,43.37-1.65,8-.36,7.82-.47,6.94,7.31-1,8.42-1.74,16.87-2.09,25.33-.16,4-1.31,5.12-5.29,4.91q-22.67-1.19-45.35-1.77c-6.75-.18-7.41.76-7.42,7.36,0,14.12,1.94,16.59,16.41,16.56,13.78,0,27.56-1.21,41.35-1.78,10.21-.41,10.34-.32,9.1,9.86-.92,7.58-2,15.15-3.45,22.66-1,5.54-2.75,6-8.4,5.74q-19.67-1-39.38-1.28c-17.48-.21-35,0-52.45,0-7.83,0-8.07,0-7.79-7.63.74-20.42,2.41-40.84,2.41-61.27,0-24.92-1.14-49.86-2.2-74.78-.2-4.59,1.23-5.44,5.17-5.24C677.57,371.79,682.08,371.61,686.57,371.61Z"/><path class="cls-2" d="M585.62,472.43c7.18-15.28,15.21-30.25,21.16-46,2.61-6.9,1.16-15.41,1.19-23.19,0-8.8-.34-17.61-.46-26.41,0-1.28.43-2.56.91-5.21,13.33,0,26.61-.09,39.88.16,1.18,0,3.32,2.29,3.32,3.51,0,16.45.35,33-.85,49.34-.48,6.48-4,13-7.13,19-12.57,24.53-25.45,48.9-38.43,73.21a7.39,7.39,0,0,1-5.36,3.2c-10.14.34-20.3.44-30.44.06a8.56,8.56,0,0,1-6.13-3.91c-14.09-27.29-27.83-54.76-41.81-82.11-4.14-8.12-2.29-16.62-2.2-25,.12-11,.67-21.92.9-32.89.06-2.87.44-4.74,4.06-4.61q18.69.7,37.4,1c3.74.07,3.31,2.61,3.2,4.86-.64,12.94-1.17,25.9-2.17,38.82-.57,7.3,0,14.18,3.35,20.81,5.93,11.66,11.67,23.41,17.49,35.12Z"/><path class="cls-1" d="M0,626.13c.57-32,25.56-59.62,57.42-62.86,38.34-3.91,68.21,20.94,72.18,59.15,1.13,10.86-3.17,20-6.36,29.46-2.1,6.21-1.16,10,3.6,14.37,8.25,7.47,16,15.53,23.74,23.53,6.6,6.8,7.07,14.42,1.59,19.89-5.89,5.88-15.14,5.85-21.55-.26-8.32-7.91-16.53-15.92-24.74-23.93-5.74-5.61-6.6-5.8-13.95-2.51-36.55,16.36-78.88-3.28-89.46-41.67C1.12,636.39.8,631.19,0,626.13Zm22.61-.08c-.09,22.43,19.2,41,42.7,41.13,22.82.12,42.37-19,42.5-41.58.13-22.23-19.49-41.47-42.47-41.65A42,42,0,0,0,22.61,626.05Z"/><path class="cls-2" d="M456.26,439c0-20.94.08-41.88-.06-62.82,0-3.9.77-5.67,5.2-5.56,11.79.29,23.58.22,35.37,0,4.08-.07,5.65,1.21,5.45,5.44-.93,20.42-2,40.84-2.35,61.27-.3,15.61.24,31.23.5,46.85.17,10.13.34,20.28.88,30.39.23,4.34-1.41,6.16-5.54,6.19-11.8.07-23.61.23-35.41.17-4.24,0-5.89-2.1-5.65-6.73C456,489.18,457,464.1,458,439Z"/></g></g></svg>